<?xml version="1.0" encoding="UTF-8" standalone="no"?>
<!-- Generator: Gravit.io -->
<svg xmlns="http://www.w3.org/2000/svg" xmlns:xlink="http://www.w3.org/1999/xlink" style="isolation:isolate" viewBox="0 0 400 300" width="400pt" height="300pt"><defs><clipPath id="_clipPath_N85iQkPubUfyVdKNMV7sVyKgw4TXWeTG"><rect width="400" height="300"/></clipPath></defs><g clip-path="url(#_clipPath_N85iQkPubUfyVdKNMV7sVyKgw4TXWeTG)"><path d=" M 97.873 164.71 Q 93.774 158.882 28.197 180.252 Q 86.163 155.645 91.432 144.636 Q 96.702 133.628 20 131.037 Q 98.458 125.857 103.142 118.086 Q 107.826 110.316 61.571 66.282 Q 117.78 96.717 127.148 94.774 Q 136.516 92.832 137.687 34 Q 154.082 90.889 164.621 92.184 Q 175.16 93.479 230.198 41.675 Q 214.975 84.413 218.488 92.184 C 222.001 99.955 279.966 64.987 285.236 64.339 C 290.505 63.691 260.059 78.585 250.105 93.479 Q 240.151 108.373 323.879 122.619 Q 283.479 125.209 270.598 142.046 Q 257.717 158.882 306.314 189.965 Q 257.131 168.596 257.131 173.776 Q 257.131 178.957 282.308 239.827 Q 229.612 182.842 218.488 197.736 Q 207.363 212.63 211.462 267.6 Q 208.913 204.859 190.573 202.269 Q 172.232 199.678 154.082 267.6 Q 166.963 191.26 154.082 189.965 Q 141.2 188.67 118.951 252.778 Q 128.319 190.613 121.879 188.022 Q 115.438 185.432 65.67 229.466 Q 116.024 180.899 109.583 175.719 Q 103.142 170.538 33.467 204.211 Q 101.971 170.538 97.873 164.71 Z " fill="rgb(46,117,62)" vector-effect="non-scaling-stroke" stroke-width="1" stroke="rgb(15,28,18)" stroke-linejoin="miter" stroke-linecap="square" stroke-miterlimit="3"/><path d=" M 170.414 178.916 C 170.199 179.194 169.246 166.353 171.644 161.98 C 174.776 159.124 178.082 155.642 181.683 155.642 C 182.805 155.642 185.753 155.669 186.317 156.698 C 186.74 157.469 187.873 159.174 188.248 159.515 C 189.257 160.436 189.103 160.523 189.406 161.628 C 189.498 161.963 191.427 166.206 191.723 166.206 C 192.11 166.206 193.268 167.614 193.268 167.614 C 193.602 167.004 193.268 164.598 193.268 164.093 C 193.268 159.431 194.747 156.054 198.674 152.473 C 201.713 149.702 206.254 147.006 209.1 146.487 C 214.528 145.497 219.323 143.94 223.002 145.431 C 225.5 146.443 226.319 147.204 227.635 149.304 C 227.837 149.626 227.683 150.154 228.021 150.36 C 229.18 151.065 231.497 155.642 231.497 155.642 C 233.554 151.89 233.142 146.662 238.448 144.727 C 244.155 142.645 247.535 140.534 251.577 139.797 C 257.739 138.673 262.791 139.46 265.864 142.262 C 269.382 145.47 272.289 147.88 274.359 150.712 C 276.088 153.076 276.619 153.23 279.379 150.712 C 284.124 146.386 287.379 145.079 291.35 145.079 C 296.819 145.079 300.104 144.361 303.707 144.727 C 312.185 145.586 317.994 148.407 317.994 153.529 C 317.994 161.325 328.213 154.5 332.282 153.882 C 338.372 152.956 342.964 153.842 346.569 154.938 C 352.156 156.636 357.938 157.558 360.471 159.867 C 365.927 164.842 357.96 166.731 359.312 170.431 C 360.17 172.777 364.479 172.164 366.263 173.248 C 370.208 175.646 373.6 178.261 373.6 181.699 C 373.6 189.731 371.749 193.843 368.194 197.896 C 366.134 200.243 365.442 200.705 364.719 201.065 C 364.004 201.42 363.164 201.509 362.402 201.769 C 357.059 203.596 366.459 204.534 367.808 207.403 C 370.625 213.398 370.034 216.749 367.422 219.727 C 362.85 224.938 357.763 227.474 352.748 227.474 C 346.365 227.474 342.59 226.769 338.847 226.769 C 334.268 226.769 338.209 232.394 336.916 234.516 C 336.496 235.204 336.171 235.937 335.757 236.629 C 335.398 237.229 335.06 237.849 334.599 238.389 C 334.152 238.913 333.705 239.501 333.054 239.798 C 326.255 242.898 318.608 244.628 313.361 243.671 C 308.797 242.839 305.522 240.343 304.093 238.389 C 303.78 237.962 303.902 236.452 303.321 236.629 C 301.234 237.263 300.968 240.074 298.687 240.854 C 289.291 244.067 282.709 246.488 275.904 246.488 C 266.611 246.488 263.393 245.326 258.913 242.262 C 255.499 239.927 255.554 237.016 256.21 235.22 C 256.405 234.687 251.192 239.093 250.418 239.446 C 243.511 242.594 236.124 242.262 231.111 242.262 C 224.395 242.262 218.786 242.292 215.665 239.446 C 211.348 235.509 211.866 232.851 212.575 229.938 C 213.392 226.588 212.712 225.299 208.714 227.121 C 200.744 230.755 195.371 230.995 189.406 230.995 C 184.068 230.995 172.798 226.853 170.871 224.657 C 167.05 220.301 163.635 217.766 164.307 214.093 C 165.021 210.184 168.219 207.326 169.327 205.642 C 169.88 204.801 170.832 204.728 171.644 204.234 C 173.887 202.87 169.618 202.716 168.554 202.473 C 167.795 202.3 166.938 202.441 166.237 202.121 C 161.349 199.892 158.391 199.22 155.425 197.192 C 151.789 194.705 151.95 187.051 151.95 184.868 C 151.95 183.897 152.001 184.024 152.336 183.107 C 152.377 182.996 152.295 182.866 152.336 182.755 C 152.599 182.035 153.616 181.588 154.267 180.994 C 156.419 179.032 160.499 176.283 162.376 175.713 C 163.032 175.513 163.744 174.656 164.693 174.656 C 166.868 174.656 171.099 173.672 170.414 178.916 Z " fill="rgb(253,117,156)" vector-effect="non-scaling-stroke" stroke-width="1" stroke="rgb(98,13,37)" stroke-linejoin="miter" stroke-linecap="square" stroke-miterlimit="3"/><text transform="matrix(0.399,-0.07,0.07,0.399,122.526,162.954)" style="font-family:'Aclonica';font-weight:400;font-size:60px;font-style:normal;fill:#ffffff;stroke:none;">Temper</text><text transform="matrix(0.402,0.047,-0.047,0.402,222.001,190.068)" style="font-family:'Aclonica';font-weight:400;font-size:60px;font-style:normal;fill:#ffffff;stroke:none;">meter</text></g></svg>