<?xml version="1.0" encoding="UTF-8" standalone="no"?>
<!-- Generator: Gravit.io -->
<svg xmlns="http://www.w3.org/2000/svg" xmlns:xlink="http://www.w3.org/1999/xlink" style="isolation:isolate" viewBox="0 0 1280 800" width="1280pt" height="800pt"><defs><clipPath id="_clipPath_iPFVOtZxdHKDDWOB9C4REki1sYb5NknZ"><rect width="1280" height="800"/></clipPath></defs><g clip-path="url(#_clipPath_iPFVOtZxdHKDDWOB9C4REki1sYb5NknZ)"><g style="isolation:isolate"><path d=" M 1057.6 35.6 C 1241.568 -16.962 1017.6 -150.271 1017.6 -84.4 C 1017.6 -78.075 1020.772 -72.057 1023.6 -66.4 C 1026.165 -61.271 1030.267 -57.067 1033.6 -52.4 C 1064.044 -2.928 1081.674 18.754 1093.6 43.6 C 1104.392 66.083 1095.6 127.146 1095.6 145.6 C 1095.6 171.335 1087.237 176.657 1081.6 175.6 C 1072.729 173.937 1053.247 150.07 1047.6 141.6 C 1028.397 112.796 1056.442 105.705 1071.6 107.6 C 1091.896 110.137 1127.393 114.693 1141.6 113.6 C 1141.6 113.6 1171.6 111.6 1171.6 111.6 C 1216.947 98.644 1221.85 85.35 1241.6 65.6 C 1250.46 56.74 1183.302 51.6 1181.6 51.6 C 1142.092 51.6 1130.834 55.103 1119.6 57.6 C 1106.814 60.441 1094.479 65.215 1081.6 67.6 C 1076.866 68.477 1045.191 66.872 1043.6 65.6 C 1008.455 37.484 1004.439 0.178 989.6 -28.4 C 983.56 -40.034 976.429 -49.389 973.6 -62.4 C 971.457 -72.258 959.512 -92.4 969.6 -92.4 C 990.839 -92.4 1002.563 -77.783 1009.6 -68.4 C 1009.6 -68.4 1013.6 -60.4 1013.6 -60.4 C 999.915 -19.345 948.103 -1.162 937.6 35.6 C 929.358 64.447 949.499 68.945 955.6 75.6 C 955.6 75.6 969.6 97.6 969.6 97.6 C 969.6 110.154 966.109 133.854 973.6 137.6 C 995.307 148.453 1007.214 146.453 1017.6 149.6 C 1041.81 156.936 1058.734 171.285 1081.6 179.6 C 1128.903 196.801 1174.538 200.98 1201.6 193.6 C 1262.413 177.015 1314.586 115.802 1317.6 73.6 C 1321.088 24.763 1297.774 26.087 1285.6 25.6 C 1269.368 24.951 1250.995 29.549 1235.6 33.6 C 1187.046 46.377 1153.951 59.354 1149.6 37.6 C 1149.339 36.293 1150.196 34.793 1149.6 33.6 C 1147.347 29.095 1088.033 76.597 1081.6 81.6 C 1051.943 104.667 1027.402 76.176 1017.6 67.6 C 989.791 43.267 975.026 40.313 961.6 33.6 C 924.481 15.041 937.843 63.257 945.6 73.6 C 986.768 128.491 1029.849 113.849 1049.6 133.6 C 1071.13 155.13 1069.302 161.799 1087.6 149.6 C 1096.471 143.686 1100.043 128.165 1101.6 119.6 C 1110.005 73.37 1130.703 41.117 1113.6 17.6 C 1111.639 14.904 1108.9 12.071 1105.6 11.6 C 1088.235 9.119 1084.68 10.162 1081.6 11.6 C 1071.615 16.26 1031.6 47.144 1031.6 55.6 C 1031.6 62.349 1036.868 61.904 1039.6 61.6 C 1050.961 60.338 1058.932 50.936 1063.6 41.6 C 1067.6 33.6 1067.6 23.6 1067.6 23.6 C 1067.6 23.6 1089.6 25.6 1057.6 35.6 Z " fill="rgb(248,237,255)"/><path d=" M 1017.6 107.6 C 1008.087 126.625 982.945 82.444 963.6 73.6 C 958.712 71.365 952.961 75.217 947.6 75.6 C 903.829 78.727 918.138 79.356 883.6 73.6 C 853.684 58.642 834.659 11.415 859.6 -6.4 C 881.991 -22.394 912.353 -26.249 921.6 -24.4 C 923.062 -24.108 924.267 -23.067 925.6 -22.4 C 933.486 -18.457 921.804 34.826 923.6 45.6 C 928.415 74.488 942.848 109.6 965.6 109.6 C 1015.38 109.6 1041.887 102.075 1075.6 79.6 C 1089.317 70.455 1100.038 59.6 1099.6 59.6 C 1099.6 59.6 1097.6 73.6 1097.6 73.6 C 1093.523 77.677 1081.11 82.702 1075.6 81.6 C 1043.085 75.097 1010.136 27.909 1037.6 9.6 C 1047.522 2.985 1053.101 6.194 1057.6 7.6 C 1068.621 11.044 1080.93 17.797 1089.6 25.6 C 1092.078 27.83 1094.109 30.619 1095.6 33.6 C 1103.622 49.645 1129.6 69.6 1139.6 69.6 C 1161.762 69.6 1173.452 81.137 1187.6 77.6 C 1190.492 76.877 1192.832 74.707 1195.6 73.6 C 1227.562 60.815 1207.831 10.305 1191.6 7.6 C 1158.797 2.133 1144.983 29.245 1139.6 43.6 C 1125.389 81.496 1130.067 117.6 1097.6 117.6 C 1064.865 117.6 1038.239 72.076 1035.6 53.6 C 1030.578 18.446 1048.821 -13.553 1071.6 -16.4 C 1116.922 -22.065 1147.026 7.026 1165.6 25.6 C 1170.314 30.314 1172.538 37.261 1177.6 41.6 C 1214.69 73.392 1245.163 72.591 1265.6 49.6 C 1299.89 11.023 1309.318 -9.254 1283.6 -26.4 C 1252.53 -47.113 1226.428 -66.676 1201.6 -58.4 C 1173.359 -48.986 1220.038 14.038 1227.6 21.6 C 1240.524 34.524 1271.757 56.412 1253.6 61.6 C 1225.31 69.683 1185.764 76.297 1173.6 77.6 C 1167.634 78.239 1161.53 78.512 1155.6 77.6 C 1152.653 77.147 1147.6 76.581 1147.6 73.6 C 1147.6 37.494 1190.122 9.287 1209.6 -2.4 C 1222.458 -10.115 1226.546 -9.736 1229.6 -8.4 C 1245.576 -1.41 1264.147 16.238 1275.6 29.6 C 1355.6 122.933 1277.267 35.267 1319.6 77.6 C 1319.982 77.982 1323.58 84.412 1321.6 85.6 C 1306.812 94.473 1222.483 104.288 1215.6 103.6 C 1178.472 99.887 1143.6 86.339 1143.6 63.6 L 1143.6 61.6 L 1149.6 55.6" fill="rgb(255,180,255)"/><path d=" M 77.6 603.6 C 96.701 619.972 121.52 548.445 141.6 563.6 C 430.895 781.936 98.195 645.478 205.6 695.6 C 208.091 696.762 210.933 696.933 213.6 697.6 C 242.563 708.74 288.604 718.537 287.6 735.6 C 284.376 790.402 287.01 811.831 293.6 831.6 C 295.135 836.204 302.854 836.617 307.6 835.6 C 307.6 835.6 327.6 823.6 327.6 823.6 C 302.575 873.65 226.461 946.436 183.6 931.6 C 175.124 928.666 173.063 916.575 165.6 911.6 C 101.607 868.938 -75.52 1040.165 -64.4 895.6 C -61.188 853.842 -51.811 838.535 -40.4 827.6 C -34.069 821.533 -23.024 825.189 -14.4 823.6 C -1.405 821.206 67.359 807.348 81.6 803.6 C 242.183 761.341 291.996 743.025 387.6 663.6 C 401.021 652.45 414.943 640.749 423.6 625.6 C 433.254 608.706 426.904 605.159 423.6 605.6 C 415.615 606.665 408.594 611.603 401.6 615.6 C 363.93 637.126 318.357 675.387 287.6 697.6 C 141.845 802.867 23.33 863.246 -32.4 891.6 C -41.281 896.118 -88.994 922.506 -104.4 921.6 C -157.318 918.487 -170.925 898.681 -182.4 883.6 C -207.653 850.41 -220.219 783.197 -202.4 743.6 C -166.784 664.453 -125.841 630.813 -82.4 625.6 C -61.871 623.137 -19.506 636.853 -0.4 647.6 C 86.239 696.335 137.308 767.802 165.6 823.6 C 180.845 853.667 189.37 887.243 207.6 915.6 C 265.351 1005.435 303.116 931.465 265.6 913.6 C 193.235 879.14 157.506 880.235 125.6 869.6 C 79.039 854.08 45.186 793.376 23.6 755.6 C -75.353 582.431 -29.317 661.138 -72.4 581.6 C -72.4 581.6 -80.4 565.6 -80.4 565.6 C -58.23 532.344 18.801 499.22 45.6 489.6 C 52.531 487.112 61.709 483.182 67.6 487.6 C 83.291 499.368 66.992 551.691 61.6 559.6 C 54.956 569.345 47.139 578.663 37.6 585.6 C 15.6 601.6 81.6 617.6 81.6 617.6 C 85.468 619.405 91.048 621.367 91.6 625.6 C 98.272 676.75 149.411 699.978 159.6 679.6 C 170.663 657.473 172.748 631.858 177.6 607.6 C 178.139 604.905 173.313 601.125 175.6 599.6 L 181.6 595.6 L 205.6 583.6" fill="rgb(176,207,255)"/><path d=" M 1157.6 595.6 C 1177.604 525.585 1148.653 740.959 1143.6 813.6 C 1142.199 833.742 1134.83 824.06 1129.6 813.6 C 1089.894 783.821 1083.393 756.398 1045.6 745.6 C 1002.323 733.235 968.362 729.758 941.6 747.6 C 919.084 762.61 923.12 787.021 929.6 801.6 C 944.029 834.065 977.571 849.607 993.6 845.6 C 1016.039 839.99 1018.602 808.098 1025.6 797.6 C 1046.309 766.536 1057.872 749.147 1069.6 729.6 C 1098.582 681.297 1112.568 660.632 1135.6 637.6 C 1157.623 615.577 1177.055 607.963 1195.6 595.6 C 1210.267 588.267 1218.791 584.536 1227.6 581.6 C 1228.865 581.178 1230.407 582.196 1231.6 581.6 C 1231.6 581.6 1241.6 573.6 1241.6 573.6 C 1256.089 573.6 1273.6 578.94 1273.6 595.6 C 1273.6 624.423 1276.569 648.82 1273.6 669.6 C 1267.592 711.659 1261.595 739.636 1257.6 767.6 C 1253.464 796.553 1247.215 813.562 1241.6 827.6 C 1230.634 855.015 1212.541 867.6 1193.6 867.6 C 1181.469 867.6 1124.278 852.278 1121.6 849.6 C 1102.121 830.121 1124.501 812.511 1137.6 809.6 C 1181.101 799.933 1208.43 806.176 1233.6 801.6 C 1270.218 794.942 1288.235 774.303 1297.6 763.6 C 1299.463 761.471 1303.6 760.428 1303.6 757.6 C 1303.6 725.562 1302.2 697.372 1281.6 685.6 C 1251.174 668.214 1215.22 671.98 1201.6 685.6 C 1149.136 738.064 1129.841 774.968 1095.6 801.6 C 1059.054 830.025 1034.055 858.982 1005.6 847.6 C 959.097 828.999 953.311 802.394 961.6 779.6 C 980.164 728.549 1017.235 699.673 1047.6 693.6 C 1105.684 681.983 1146.405 698.286 1183.6 703.6 C 1218.33 708.561 1225.217 705.94 1231.6 703.6 C 1267.079 690.591 1283.586 679.622 1303.6 649.6 C 1327.796 613.306 1335.911 566.924 1307.6 555.6 C 1293.267 549.867 1287.889 549.762 1283.6 551.6 C 1262.398 560.687 1249.868 588.074 1237.6 605.6 C 1198.805 661.021 1172.32 695.56 1137.6 721.6 C 1105 746.05 1063.857 773.499 1053.6 737.6 C 1036.855 678.993 1051.321 639.554 1057.6 595.6 C 1066.046 536.478 1078.873 514.433 1101.6 493.6 C 1105.77 489.778 1108.233 483.389 1113.6 481.6 C 1153.469 468.31 1162.982 509.69 1171.6 525.6 C 1175.303 532.436 1180.383 538.522 1183.6 545.6 C 1208.229 599.785 1220.181 621.245 1253.6 629.6 C 1258.814 630.904 1264.386 632.904 1269.6 631.6 C 1326.411 617.397 1357.272 557.076 1365.6 519.6 C 1376.402 470.991 1348.82 434.21 1323.6 421.6 C 1288.43 404.015 1259.96 394.984 1235.6 409.6 C 1197.728 432.323 1178.631 465.265 1167.6 495.6 C 1149.041 546.638 1150.093 594.993 1157.6 625.6 C 1164.188 652.46 1177.63 678.014 1179.6 705.6 C 1185.027 781.582 1109.308 860.575 1067.6 885.6 C 1037.96 903.384 996.211 896.042 989.6 869.6 C 978.237 824.148 994.722 798.982 1005.6 773.6 C 1022.875 733.291 1038.906 702.294 1059.6 681.6 C 1091.814 649.386 1113.455 627.745 1135.6 605.6 C 1171.731 569.469 1188.028 559.651 1213.6 541.6" fill="rgb(233,255,188)"/><path d=" M 221.6 -56.4 C 299.024 -90.273 78.312 34.145 1.6 69.6 C -10.186 75.047 -24.05 38.65 -26.4 31.6 C -26.4 5.54 8.225 -5.744 21.6 -2.4 C 76.758 11.39 115.103 40.53 145.6 53.6 C 216.523 83.996 267.167 104.137 313.6 109.6 C 388.585 118.422 432.851 120.655 473.6 111.6 C 511.273 103.228 536.626 80.198 543.6 61.6 C 551.6 40.267 554.219 35.126 555.6 29.6 C 558.087 19.652 549.6 13.934 549.6 5.6 C 549.6 -12.341 523.741 -20.4 517.6 -20.4 C 495.167 -20.4 471.501 -19.063 461.6 -10.4 C 424.977 21.645 411.231 41.27 395.6 63.6 C 360.78 113.343 336.254 151.789 303.6 169.6 C 255.923 195.605 208.759 202.759 185.6 179.6 C 157.825 151.825 139.064 126.935 163.6 111.6 C 189.326 95.521 197.832 87.611 207.6 81.6 C 233.623 65.586 262.758 53.818 287.6 35.6 C 341.164 -3.68 395.056 -32.226 403.6 -66.4 C 408.923 -87.692 379.93 -98.4 371.6 -98.4 C 338.838 -98.4 301.862 -106.925 289.6 -82.4 C 282.917 -69.033 284.27 -62.251 285.6 -56.4 C 292.02 -28.151 307.931 -1.755 311.6 27.6 C 323.582 123.456 344.103 174.825 337.6 223.6 C 326.835 304.334 273.111 369.368 219.6 377.6 C 140.736 389.733 100.512 336.904 53.6 293.6 C -3.977 240.452 -6.475 177.959 31.6 151.6 C 118.513 91.429 194.639 143.808 253.6 155.6 C 350.939 175.068 427.127 163.5 457.6 121.6 C 481.598 88.603 480.725 73.169 481.6 59.6 C 482.955 38.592 458.128 -13.57 437.6 -18.4 C 391.493 -29.249 362.164 9.955 357.6 15.6 C 338.813 38.837 320.426 62.395 301.6 85.6 C 291.758 97.73 283.46 111.434 271.6 121.6 C 190.963 190.718 92.197 191.899 31.6 161.6 C -25.066 133.267 -46.431 93.396 -52.4 53.6 C -62.511 -13.804 -26.593 -62.4 3.6 -62.4 C 76.616 -62.4 138.383 10.122 185.6 41.6 C 241.11 78.607 283.556 88.098 313.6 89.6 C 333.13 90.577 377.931 77.602 389.6 67.6 C 460.814 6.56 493.491 -69.806 435.6 -108.4 C 398.863 -132.891 345.462 -141.691 325.6 -142.4 C 320.189 -142.593 280.725 -137.963 277.6 -136.4 C 233.186 -114.193 197.444 -1.011 183.6 27.6 C 69.694 263.006 13.092 288.893 -32.4 319.6 C -41.81 325.952 -55.63 325.19 -66.4 321.6 C -96.357 311.614 -111.366 289.669 -124.4 263.6 C -155.462 201.477 -147.756 140.506 -128.4 107.6 C -87.814 38.604 -37.742 6.567 3.6 21.6 C 65.58 44.138 141.492 126.861 181.6 153.6 C 246.941 197.161 344.328 218.705 383.6 203.6 L 435.6 183.6 L 485.6 129.6" fill="rgb(181,255,251)"/><path d=" M 119.6 -0.4 C 119.6 149.673 60.324 85.687 101.6 147.6 C 108.059 166.978 125.915 171.218 137.6 175.6 C 178.737 191.026 229.851 204.912 255.6 185.6 C 263.6 179.6 223.6 175.6 223.6 175.6 C 131.577 166.398 84.362 158.302 31.6 161.6 C -23.261 165.029 -46.226 180.483 -68.4 185.6 C -71.648 186.35 -79.891 188.581 -78.4 185.6 C -55.604 140.008 -13.777 107.174 15.6 73.6 C 52.836 31.044 104.816 34.801 135.6 37.6 C 177.221 41.384 184.754 39.369 203.6 35.6 C 208.928 34.534 230.513 30.687 235.6 25.6 C 249.612 11.588 241.754 5.523 237.6 7.6 C 228.609 12.096 201.979 29.221 195.6 35.6 C 126.927 104.273 92.644 158.395 59.6 205.6 C 35.374 240.208 6.174 261.356 -14.4 249.6 C -38.673 235.73 -74.392 189.555 -72.4 177.6 C -69.39 159.537 -61.635 156.821 -56.4 153.6 C -41.574 144.476 -25.135 156.326 -10.4 159.6 C 50.027 173.028 93.72 142.305 127.6 121.6 C 141.957 112.826 153.787 99.35 169.6 93.6 C 210.944 78.566 230.388 89.6 249.6 89.6 C 268.952 89.6 277.6 57.495 277.6 49.6 C 277.6 38.85 276.207 28.029 273.6 17.6 C 258.362 -43.351 195.35 -104.629 151.6 -86.4 C 99.646 -64.752 78.782 -12.773 77.6 15.6 C 77.321 22.294 77.759 29.158 79.6 35.6 C 88.402 66.405 131.986 49.267 135.6 83.6 C 141.426 138.943 144.676 198.37 133.6 207.6 C 93.306 241.178 52.86 218.623 41.6 191.6 C 23.286 147.647 11.561 126.464 5.6 105.6 C -1.824 79.615 11.371 63.478 19.6 57.6 C 53.248 33.565 86.357 27.852 109.6 35.6 C 129.497 42.232 132.105 42.929 133.6 41.6 C 148.387 28.456 163.221 4.73 175.6 -10.4" fill="rgb(255,182,182)"/></g><path d=" M 925.6 735.6 C 922.382 725.946 942.64 746.775 951.6 751.6 C 951.6 751.6 955.6 721.6 955.6 721.6 C 1001.929 644.385 1029.176 692.428 1007.6 717.6 C 989.434 738.794 983.519 746.201 977.6 753.6 C 974.708 757.215 965.394 766.651 977.6 763.6 C 987.968 761.008 1042.23 734.861 1047.6 745.6 C 1053.942 758.284 1022.454 777.317 1009.6 787.6 C 984.633 807.574 987.623 815.6 1001.6 815.6 C 1023.033 815.6 1022.205 833.181 1019.6 843.6 C 1013.825 866.7 987.622 860.274 979.6 857.6 C 968.986 854.062 963.82 833.577 963.6 831.6 C 963.6 831.6 965.6 825.6 965.6 825.6 C 941.583 861.625 961.675 838.658 941.6 861.6 C 941.6 861.6 935.6 867.6 935.6 867.6 C 926.009 867.6 921.6 833.567 921.6 827.6 C 921.6 825.6 905.6 833.6 905.6 833.6 C 902.869 835.512 900.312 837.663 897.6 839.6 C 895.644 840.997 893.3 841.9 891.6 843.6 C 890.546 844.654 890.933 848.267 889.6 847.6 C 885.6 845.6 863.6 797.6 863.6 797.6 C 862.101 795.201 860.13 790.335 857.6 791.6 C 853.6 793.6 855.6 813.6 855.6 813.6 C 851.833 809.833 846.262 798.234 845.6 793.6 C 840.818 760.129 837.313 766.605 841.6 751.6 C 842.347 748.985 845.291 743.446 849.6 745.6 C 871.396 756.498 875.796 773.673 891.6 779.6 C 893.473 780.302 897.6 781.6 897.6 779.6 C 897.6 757.825 883.934 738.935 879.6 721.6 C 873.689 697.955 908.517 704.329 913.6 705.6 C 943.662 713.115 949.479 726.368 953.6 745.6 L 959.6 773.6 L 961.6 781.6" fill="rgb(185,236,185)"/><g style="isolation:isolate"><g style="isolation:isolate"><path d=" M 395.266 435.795 Q 385.831 422.874 234.87 470.251 Q 368.309 415.695 380.439 391.289 Q 392.57 366.882 216 361.139 Q 396.614 349.654 407.397 332.426 Q 418.18 315.198 311.698 217.571 Q 441.093 285.048 462.659 280.741 Q 484.225 276.434 486.921 146 Q 524.661 272.127 548.922 274.998 Q 573.184 277.87 699.883 163.015 Q 664.839 257.77 672.926 274.998 C 681.013 292.227 814.451 214.7 826.582 213.264 C 838.713 211.828 768.624 244.849 745.71 277.87 Q 722.797 310.891 915.541 342.476 Q 822.539 348.218 792.886 385.546 Q 763.233 422.874 875.105 491.787 Q 761.885 444.409 761.885 455.895 Q 761.885 467.38 819.843 602.334 Q 698.535 475.994 672.926 509.015 Q 647.316 542.036 656.751 663.909 Q 650.884 524.807 608.664 519.065 Q 566.445 513.322 524.661 663.909 Q 554.314 494.658 524.661 491.787 Q 495.008 488.915 443.789 631.048 Q 465.355 493.222 450.528 487.48 Q 435.702 481.737 321.133 579.363 Q 437.05 471.687 422.223 460.202 Q 407.397 448.716 247.001 523.372 Q 404.701 448.716 395.266 435.795 Z " fill="rgb(46,117,62)" vector-effect="non-scaling-stroke" stroke-width="1" stroke="rgb(15,28,18)" stroke-linejoin="miter" stroke-linecap="square" stroke-miterlimit="3"/></g><g style="isolation:isolate"/><g style="isolation:isolate"/><g style="isolation:isolate"/><g style="isolation:isolate"/><g style="isolation:isolate"><path d=" M 562.258 467.291 C 561.764 467.906 559.57 439.437 565.089 429.742 C 572.3 423.409 579.912 415.69 588.201 415.69 C 590.783 415.69 597.569 415.75 598.868 418.032 C 599.842 419.741 602.451 423.52 603.313 424.277 C 605.636 426.318 605.282 426.511 605.98 428.961 C 606.192 429.705 610.631 439.11 611.313 439.11 C 612.202 439.11 614.869 442.233 614.869 442.233 C 615.639 440.881 614.869 435.547 614.869 434.426 C 614.869 424.09 618.275 416.603 627.314 408.664 C 634.31 402.52 644.763 396.544 651.315 395.393 C 663.809 393.198 674.85 389.746 683.317 393.051 C 689.069 395.296 690.955 396.983 693.984 401.638 C 694.449 402.352 694.093 403.524 694.873 403.98 C 697.54 405.541 702.873 415.69 702.873 415.69 C 707.609 407.372 706.661 395.78 718.874 391.489 C 732.012 386.874 739.794 382.194 749.098 380.56 C 763.284 378.068 774.915 379.812 781.988 386.025 C 790.087 393.137 796.778 398.482 801.545 404.761 C 805.523 410.002 806.746 410.342 813.101 404.761 C 824.023 395.168 831.516 392.27 840.658 392.27 C 853.248 392.27 860.81 390.68 869.103 391.489 C 888.621 393.394 901.994 399.649 901.994 411.006 C 901.994 428.29 925.518 413.158 934.884 411.787 C 948.905 409.734 959.474 411.699 967.775 414.129 C 980.635 417.893 993.945 419.937 999.776 425.058 C 1012.335 436.087 993.996 440.275 997.11 448.478 C 999.083 453.678 1009.004 452.319 1013.11 454.723 C 1022.192 460.04 1030 465.838 1030 473.459 C 1030 491.268 1025.74 500.385 1017.555 509.37 C 1012.814 514.574 1011.22 515.598 1009.555 516.396 C 1007.909 517.184 1005.976 517.379 1004.221 517.957 C 991.922 522.008 1013.562 524.087 1016.666 530.448 C 1023.152 543.74 1021.791 551.169 1015.777 557.771 C 1005.252 569.325 993.542 574.946 981.998 574.946 C 967.303 574.946 958.613 573.385 949.996 573.385 C 939.457 573.385 948.528 585.855 945.552 590.559 C 944.586 592.085 943.837 593.711 942.885 595.243 C 942.057 596.575 941.279 597.949 940.218 599.147 C 939.189 600.309 938.161 601.611 936.662 602.269 C 921.01 609.142 903.406 612.978 891.327 610.857 C 880.82 609.011 873.281 603.479 869.992 599.147 C 869.273 598.199 869.552 594.852 868.215 595.243 C 863.412 596.649 862.799 602.882 857.547 604.611 C 835.918 611.735 820.765 617.102 805.1 617.102 C 783.708 617.102 776.299 614.526 765.987 607.734 C 758.126 602.556 758.254 596.103 759.765 592.121 C 760.213 590.939 748.213 600.706 746.431 601.489 C 730.532 608.47 713.525 607.734 701.984 607.734 C 686.526 607.734 673.613 607.8 666.427 601.489 C 656.49 592.762 657.682 586.867 659.316 580.411 C 661.196 572.982 659.631 570.124 650.426 574.165 C 632.079 582.222 619.711 582.753 605.98 582.753 C 593.691 582.753 567.747 573.57 563.311 568.701 C 554.514 559.043 546.654 553.424 548.199 545.281 C 549.844 536.615 557.206 530.277 559.755 526.545 C 561.03 524.68 563.22 524.517 565.089 523.422 C 570.254 520.398 560.426 520.056 557.978 519.519 C 556.229 519.135 554.256 519.446 552.644 518.738 C 541.39 513.796 534.581 512.306 527.754 507.809 C 519.382 502.295 519.754 485.326 519.754 480.485 C 519.754 478.333 519.871 478.614 520.642 476.582 C 520.736 476.335 520.549 476.048 520.642 475.801 C 521.249 474.205 523.589 473.213 525.087 471.898 C 530.04 467.548 539.433 461.453 543.755 460.188 C 545.264 459.746 546.903 457.846 549.088 457.846 C 554.095 457.846 563.835 455.664 562.258 467.291 Z " fill="rgb(253,117,156)" vector-effect="non-scaling-stroke" stroke-width="1" stroke="rgb(98,13,37)" stroke-linejoin="miter" stroke-linecap="square" stroke-miterlimit="3"/></g><g style="isolation:isolate"><text transform="matrix(0.985,-0.173,0.173,0.985,454.442,428.557)" style="font-family:'Aclonica';font-weight:400;font-size:60px;font-style:normal;fill:#ffffff;stroke:none;">Temper</text></g><g style="isolation:isolate"><text transform="matrix(0.993,0.117,-0.117,0.993,678.036,497.118)" style="font-family:'Aclonica';font-weight:400;font-size:60px;font-style:normal;fill:#ffffff;stroke:none;">meter</text></g></g></g></svg>